HIERARCHY
ROOT Hips
{
	OFFSET 0.00000 0.00000 0.00000
	CHANNELS 6 Xposition Yposition Zposition Zrotation Yrotation Xrotation 
	JOINT LHipJoint
	{
		OFFSET 0 0 0
		CHANNELS 3 Zrotation Yrotation Xrotation
		JOINT LeftHip
		{
			OFFSET 1.26600 -1.82114 0.91038
			CHANNELS 3 Zrotation Yrotation Xrotation
			JOINT LeftKnee
			{
				OFFSET 2.50076 -6.87080 0.00000
				CHANNELS 3 Zrotation Yrotation Xrotation
				JOINT LeftAnkle
				{
					OFFSET 2.57364 -7.07102 0.00000
					CHANNELS 3 Zrotation Yrotation Xrotation
					JOINT LeftToe
					{
						OFFSET 0.13572 -0.37290 1.97004
						CHANNELS 3 Zrotation Yrotation Xrotation
						End Site
						{
							OFFSET 0.00000 -0.00000 1.01383
						}
					}
				}
			}
		}
	}
	JOINT RHipJoint
	{
		OFFSET 0 0 0
		CHANNELS 3 Zrotation Yrotation Xrotation
		JOINT RightHip
		{
			OFFSET -1.20803 -1.82114 0.91038
			CHANNELS 3 Zrotation Yrotation Xrotation
			JOINT RightKnee
			{
				OFFSET -2.54916 -7.00377 0.00000
				CHANNELS 3 Zrotation Yrotation Xrotation
				JOINT RightAnkle
				{
					OFFSET -2.56374 -7.04382 0.00000
					CHANNELS 3 Zrotation Yrotation Xrotation
					JOINT RightToe
					{
						OFFSET -0.23520 -0.64621 2.09921
						CHANNELS 3 Zrotation Yrotation Xrotation
						End Site
						{
							OFFSET -0.00000 -0.00000 1.10065
						}
					}
				}
			}
		}
	}
	JOINT lowerback
	{
		OFFSET 0 0 0
		CHANNELS 3 Zrotation Yrotation Xrotation
		JOINT Chest
		{
			OFFSET 0.05492 2.10797 -0.12074
			CHANNELS 3 Zrotation Yrotation Xrotation
			JOINT Chest2
			{
				OFFSET 0.04577 2.11592 -0.04483
				CHANNELS 3 Zrotation Yrotation Xrotation
				JOINT lowerneck
				{
					OFFSET 0 0 0
					CHANNELS 3 Zrotation Yrotation Xrotation
					JOINT Neck
					{
						OFFSET -0.10759 1.80167 0.15770
						CHANNELS 3 Zrotation Yrotation Xrotation
						JOINT Head
						{
							OFFSET 0.09237 1.77509 -0.40848
							CHANNELS 3 Zrotation Yrotation Xrotation
							End Site
							{
								OFFSET 0.03805 1.84093 -0.15754
							}
						}
					}
				}
				JOINT LeftCollar
				{
					OFFSET 0 0 0
					CHANNELS 3 Zrotation Yrotation Xrotation
					JOINT LeftShoulder
					{
						OFFSET 3.42372 1.09575 -0.28209
CHANNELS 3 Zrotation Xrotation Yrotation
						JOINT LeftElbow
						{
OFFSET 0 -4.956810 0.000000
CHANNELS 3 Zrotation Xrotation Yrotation
							JOINT LeftWrist
							{
OFFSET 0 -3.409150 0.000000
CHANNELS 3 Zrotation Xrotation Yrotation
								JOINT lhand
								{
									OFFSET 0 0 0
CHANNELS 3 Zrotation Xrotation Yrotation
									JOINT LFingers
									{
OFFSET 0 -0.616400 0.000000
CHANNELS 3 Zrotation Xrotation Yrotation
										End Site
										{
OFFSET 0 -0.496960 0.000000
										}
									}
								}
								JOINT LThumb
								{
OFFSET 0 0.000000 0.000000
CHANNELS 3 Zrotation Xrotation Yrotation
									End Site
									{
OFFSET 0 -0.504550 0.504550
									}
								}
							}
						}
					}
				}
				JOINT RightCollar
				{
					OFFSET 0 0 0
					CHANNELS 3 Zrotation Yrotation Xrotation
					JOINT RightShoulder
					{
						OFFSET -3.24731 1.15872 -0.32221
CHANNELS 3 Zrotation Xrotation Yrotation
						JOINT RightElbow
						{
OFFSET 0 -5.352000 0.000000
CHANNELS 3 Zrotation Xrotation Yrotation
							JOINT RightWrist
							{
OFFSET 0 -3.437210 -0.000000
CHANNELS 3 Zrotation Xrotation Yrotation
								JOINT rhand
								{
									OFFSET 0 0 0
CHANNELS 3 Zrotation Xrotation Yrotation
									JOINT RFingers
									{
OFFSET 0 -0.720090 0.000000
CHANNELS 3 Zrotation Xrotation Yrotation
										End Site
										{
OFFSET 0 -0.580560 0.000000
										}
									}
								}
								JOINT RThumb
								{
OFFSET 0 0.000000 0.000000
CHANNELS 3 Zrotation Xrotation Yrotation
									End Site
									{
OFFSET 0 -0.589420 0.589420
									}
								}
							}
						}
					}
				}
			}
		}
	}
}
MOTION
Frames: 7
Frame Time: 0.008333333333333333
22.999500 24.249500 21.118100 -171.543000 -81.672100 176.028000 0.000000 0.000000 0.000000 -18.512300 -6.739600 -16.338800 2.301400 9.467600 27.269200 0.346700 -7.263400 -10.920100 0.770000 5.603100 15.637000 0.000000 0.000000 0.000000 21.839900 8.673200 -23.322400 -5.607100 -14.036500 43.383800 -1.413800 8.121400 -21.272800 -0.006600 -0.526200 1.446000 0.318400 0.232200 10.352600 1.931600 0.266300 3.238900 1.792000 0.070800 -2.441000 -8.681900 1.207800 -14.032900 2.835800 1.547900 39.077400 2.891400 -0.857000 16.224700 0.000000 0.000000 0.000000 4.089800 7.918000 -23.733600 20.871100 -31.677600 5.982100 17.802500 -2.919100 -20.985400 0.000000 0.000000 0.000000 -7.125000 0.000000 0.000000 -10.982200 51.594800 1.801900 0.000000 0.000000 0.000000 -5.343100 0.392000 26.166700 -21.592800 -32.513800 -6.365600 -21.551600 -20.726300 -11.523300 0.000000 0.000000 0.000000 7.125000 0.000000 -0.000000 3.916200 17.633700 2.551800
22.717433 24.184346 21.047365 -177.105766 -83.075517 181.153671 0.000000 0.000000 0.000000 -19.548264 -6.551114 -15.324254 2.405264 9.663576 27.894084 0.290199 -8.466271 -10.524860 1.195591 6.937744 19.531145 0.000000 0.000000 0.000000 20.968089 10.472015 -21.952433 -4.245465 -12.479409 37.450767 -1.203676 9.314229 -19.717077 -0.024154 0.983822 -2.704460 -0.587428 -0.228493 9.722039 2.160820 -0.410899 2.963255 2.618816 -0.257723 -2.351755 -8.975884 1.098801 -13.648916 2.697438 1.404352 39.437550 2.855469 -1.020052 16.336442 0.000000 0.000000 0.000000 3.062663 6.916525 -22.792890 20.621665 -31.384050 5.851706 18.458377 -1.387678 -21.027526 0.000000 0.000000 0.000000 -7.125000 0.000000 0.000000 -10.352734 51.749549 1.736195 0.000000 0.000000 0.000000 -5.312933 1.042807 22.783997 -19.969985 -30.605667 -5.516285 -22.442065 -20.231768 -12.217395 0.000000 0.000000 0.000000 7.125000 0.000000 0.000000 3.321411 16.809050 2.222533
22.386428 24.150179 20.961234 -179.049439 -83.289748 182.366154 0.000000 0.000000 0.000000 -19.963162 -5.413032 -13.469816 2.353946 9.567398 27.587073 0.261436 -9.543535 -10.554601 1.303393 7.232199 20.405348 0.000000 0.000000 0.000000 21.540509 10.292482 -19.936173 -3.722049 -11.781088 34.961959 -0.553330 7.115360 -13.412059 -0.305349 -3.552220 9.820300 -0.222322 -0.049896 8.932532 2.102441 -0.143910 3.011250 2.314284 -0.126012 -1.881386 -8.666256 0.868266 -13.239102 2.280659 1.003272 39.841119 2.547098 -1.233058 16.495576 0.000000 0.000000 0.000000 2.643583 6.096254 -22.802238 20.860729 -31.665402 5.976625 19.386705 -1.764479 -20.613631 0.000000 0.000000 0.000000 -7.125000 0.000000 0.000000 -9.290062 51.486338 1.494974 0.000000 0.000000 0.000000 -4.165634 1.185594 17.845204 -17.460445 -27.460685 -4.297480 -22.327244 -17.757765 -10.601678 0.000000 0.000000 0.000000 7.125000 0.000000 0.000000 3.339988 18.551933 2.107404
22.039250 24.133618 20.865811 -184.029820 -83.301073 186.719117 0.000000 0.000000 0.000000 -20.582006 -4.235674 -11.378226 2.251969 9.372338 26.967019 0.323878 -10.048243 -11.523555 0.726560 5.437050 15.161680 0.000000 0.000000 0.000000 21.655409 10.318986 -17.012240 -3.522730 -11.496557 33.973645 -0.636695 5.957750 -14.230475 -0.259157 -3.274144 9.043012 -0.230033 -0.006790 8.098594 2.163262 -0.076776 2.801262 2.369825 -0.087142 -1.640168 -9.300479 1.016411 -12.647690 2.511906 1.122415 40.663720 2.783709 -1.327397 16.778625 0.000000 0.000000 0.000000 1.679760 6.715016 -22.738079 21.622692 -32.547927 6.381668 18.707506 -2.090117 -20.739740 0.000000 0.000000 0.000000 -7.125000 0.000000 0.000000 -10.003330 51.499433 1.614907 0.000000 0.000000 0.000000 -4.048907 1.561625 14.583178 -14.708081 -23.737345 -3.107816 -21.303058 -14.688525 -10.064532 0.000000 0.000000 0.000000 7.125000 0.000000 0.000000 4.050765 19.208400 2.498745
21.721419 24.143778 20.766454 -173.738117 -83.119328 176.358467 0.000000 0.000000 0.000000 -19.080689 -4.904991 -9.535326 2.292119 9.449808 27.212734 0.514328 -9.763691 -13.555680 0.850573 5.882088 16.442784 0.000000 0.000000 0.000000 23.401666 9.678257 -15.175159 -3.341683 -11.228717 33.055038 -0.698993 7.212598 -14.990768 -0.281537 -3.411911 9.427796 2.034316 0.746666 7.265987 2.121548 1.062329 2.915611 0.956786 0.487999 -1.065833 -8.604319 0.392967 -13.089206 2.852274 -0.130237 41.087054 2.618270 -1.693885 17.231252 0.000000 0.000000 0.000000 2.263329 6.269957 -24.931035 21.690663 -32.625738 6.418282 18.444272 -1.825529 -20.263747 0.000000 0.000000 0.000000 -7.125000 0.000000 0.000000 -10.093508 50.970794 1.497839 0.000000 0.000000 0.000000 -2.823482 1.183279 10.294055 -12.711626 -20.863157 -2.349526 -20.206002 -11.132107 -9.809117 0.000000 0.000000 0.000000 7.125000 0.000000 0.000000 4.826962 19.560317 2.942732
21.408266 24.120286 20.673301 -166.118060 -84.064934 168.736536 0.000000 0.000000 0.000000 -18.231476 -5.514796 -9.015660 2.592139 10.002503 28.985775 0.541857 -10.380992 -14.020695 1.121042 6.716705 18.882166 0.000000 0.000000 0.000000 24.313060 7.140039 -14.294791 -3.205398 -11.020299 32.348534 -0.713947 9.015799 -15.401841 -0.284719 -3.428824 9.475333 2.351584 0.030216 6.423813 3.340673 0.122716 2.433776 2.111784 0.010525 -1.092966 -9.544915 0.825279 -12.303844 2.345811 0.839381 41.298910 2.708245 -1.557391 17.078506 0.000000 0.000000 0.000000 -0.227967 7.932925 -24.116794 21.825347 -32.779018 6.491094 17.605421 -1.848930 -20.579162 0.000000 0.000000 0.000000 -7.125000 0.000000 0.000000 -11.025506 51.151326 1.688515 0.000000 0.000000 0.000000 -4.565660 2.735644 12.961525 -12.513890 -20.570883 -2.279668 -19.648361 -10.216610 -9.503147 0.000000 0.000000 0.000000 7.125000 0.000000 0.000000 5.221616 19.921750 3.142847
21.179643 24.047791 20.555642 -154.968105 -85.503967 156.868341 0.000000 0.000000 0.000000 -17.281756 -5.030411 -12.060642 3.933374 12.070940 35.983745 0.317423 -10.404257 -11.587909 0.343362 3.765000 10.416445 0.000000 0.000000 0.000000 25.100983 5.864092 -12.332410 -3.069203 -10.806184 31.629072 -0.697721 11.224741 -15.764068 -1.511117 -7.763215 21.997311 2.225795 -0.544408 6.886676 4.146004 -0.640115 2.415737 3.080945 -0.385620 -1.341710 -9.850258 0.892663 -12.001724 2.211572 1.036121 41.212261 2.728035 -1.541724 16.940476 0.000000 0.000000 0.000000 -1.240820 8.507232 -25.007546 21.431626 -32.328752 6.279153 16.568243 -1.835334 -20.089606 0.000000 0.000000 0.000000 -7.125000 0.000000 0.000000 -11.852422 50.489179 1.623000 0.000000 0.000000 0.000000 -5.606047 3.053102 15.481158 -12.945288 -21.206912 -2.433423 -19.364394 -11.376514 -10.084972 0.000000 0.000000 0.000000 7.125000 0.000000 0.000000 5.428947 19.329003 3.340887
